<?xml version="1.0" encoding="UTF-8" standalone="no"?>
<!-- Created with Inkscape (http://www.inkscape.org/) -->

<svg
   width="600mm"
   height="150mm"
   viewBox="0 0 600 150"
   version="1.1"
   id="svg1"
   inkscape:version="1.4.2 (f4327f4, 2025-05-13)"
   sodipodi:docname="dewalt box divider.svg"
   xmlns:inkscape="http://www.inkscape.org/namespaces/inkscape"
   xmlns:sodipodi="http://sodipodi.sourceforge.net/DTD/sodipodi-0.dtd"
   xmlns="http://www.w3.org/2000/svg"
   xmlns:svg="http://www.w3.org/2000/svg">
  <sodipodi:namedview
     id="namedview1"
     pagecolor="#ffffff"
     bordercolor="#111111"
     borderopacity="1"
     inkscape:showpageshadow="0"
     inkscape:pageopacity="0"
     inkscape:pagecheckerboard="1"
     inkscape:deskcolor="#d1d1d1"
     inkscape:document-units="mm"
     inkscape:zoom="0.74016561"
     inkscape:cx="1236.8853"
     inkscape:cy="223.59861"
     inkscape:window-width="3440"
     inkscape:window-height="1377"
     inkscape:window-x="-8"
     inkscape:window-y="472"
     inkscape:window-maximized="1"
     inkscape:current-layer="layer1" />
  <defs
     id="defs1">
    <inkscape:path-effect
       effect="tiling"
       id="path-effect2"
       is_visible="true"
       lpeversion="1.3.1"
       unit="px"
       seed="1;1"
       lpesatellites=""
       num_rows="6"
       num_cols="11"
       gapx="0"
       gapy="0"
       offset="0"
       offset_type="false"
       scale="0"
       rotate="0"
       mirrorrowsx="false"
       mirrorrowsy="false"
       mirrorcolsx="false"
       mirrorcolsy="false"
       mirrortrans="false"
       shrink_interp="false"
       split_items="false"
       link_styles="false"
       interpolate_scalex="false"
       interpolate_scaley="true"
       interpolate_rotatex="false"
       interpolate_rotatey="true"
       random_scale="false"
       random_rotate="false"
       random_gap_y="false"
       random_gap_x="false"
       transformorigin="" />
    <inkscape:path-effect
       effect="clone_original"
       linkeditem=""
       id="path-effect1"
       is_visible="true"
       lpeversion="1"
       method="d"
       attributes=""
       css_properties=""
       allow_transforms="true" />
  </defs>
  <g
     inkscape:label="Layer 1"
     inkscape:groupmode="layer"
     id="layer1">
    <path
       style="fill:none;stroke:#000000;stroke-width:0.02;stroke-linecap:butt;stroke-linejoin:miter;stroke-opacity:1;stroke-dasharray:none"
       d="M 0,24.877245 H 51.877245 V 0 m 0,24.877245 H 103.75449 V 0 m 0,24.877245 h 51.87724 V 0 m 0,24.877245 h 51.87725 V 0 m 0,24.877245 h 51.87725 V 0 m 0,24.877245 h 51.87724 V 0 m 0,24.877245 h 51.87724 V 0 m 0,24.877245 h 51.87725 V 0 m 0,24.877245 h 51.87725 V 0 m 0,24.877245 h 51.87724 V 0 m 0,24.877245 H 570.6497 V 0 M 0,49.75449 H 51.877245 V 24.877245 m 0,24.877245 H 103.75449 V 24.877245 m 0,24.877245 h 51.87724 V 24.877245 m 0,24.877245 h 51.87725 V 24.877245 m 0,24.877245 h 51.87725 V 24.877245 m 0,24.877245 h 51.87724 V 24.877245 m 0,24.877245 h 51.87724 V 24.877245 m 0,24.877245 h 51.87725 V 24.877245 m 0,24.877245 h 51.87725 V 24.877245 m 0,24.877245 h 51.87724 V 24.877245 m 0,24.877245 H 570.6497 V 24.877245 M 0,74.631735 H 51.877245 V 49.75449 m 0,24.877245 H 103.75449 V 49.75449 m 0,24.877245 h 51.87724 V 49.75449 m 0,24.877245 h 51.87725 V 49.75449 m 0,24.877245 h 51.87725 V 49.75449 m 0,24.877245 h 51.87724 V 49.75449 m 0,24.877245 h 51.87724 V 49.75449 m 0,24.877245 h 51.87725 V 49.75449 m 0,24.877245 h 51.87725 V 49.75449 m 0,24.877245 h 51.87724 V 49.75449 m 0,24.877245 H 570.6497 V 49.75449 M 0,99.50898 H 51.877245 V 74.631735 m 0,24.877245 H 103.75449 V 74.631735 m 0,24.877245 h 51.87724 V 74.631735 m 0,24.877245 h 51.87725 V 74.631735 m 0,24.877245 h 51.87725 V 74.631735 m 0,24.877245 h 51.87724 V 74.631735 m 0,24.877245 h 51.87724 V 74.631735 m 0,24.877245 h 51.87725 V 74.631735 m 0,24.877245 h 51.87725 V 74.631735 m 0,24.877245 h 51.87724 V 74.631735 m 0,24.877245 H 570.6497 V 74.631735 M 0,124.38622 H 51.877245 V 99.50898 m 0,24.87724 H 103.75449 V 99.50898 m 0,24.87724 h 51.87724 V 99.50898 m 0,24.87724 h 51.87725 V 99.50898 m 0,24.87724 h 51.87725 V 99.50898 m 0,24.87724 h 51.87724 V 99.50898 m 0,24.87724 h 51.87724 V 99.50898 m 0,24.87724 h 51.87725 V 99.50898 m 0,24.87724 h 51.87725 V 99.50898 m 0,24.87724 h 51.87724 V 99.50898 m 0,24.87724 H 570.6497 V 99.50898 M 0,149.26347 h 51.877245 v -24.87725 m 0,24.87725 h 51.877245 v -24.87725 m 0,24.87725 h 51.87724 v -24.87725 m 0,24.87725 h 51.87725 v -24.87725 m 0,24.87725 h 51.87725 v -24.87725 m 0,24.87725 h 51.87724 v -24.87725 m 0,24.87725 h 51.87724 v -24.87725 m 0,24.87725 h 51.87725 v -24.87725 m 0,24.87725 h 51.87725 v -24.87725 m 0,24.87725 h 51.87724 v -24.87725 m 0,24.87725 h 51.87725 v -24.87725"
       id="path1"
       inkscape:path-effect="#path-effect2"
       inkscape:original-d="M 0,24.877245 H 51.877245 V 0" />
    <path
       style="fill:none;stroke:#000000;stroke-width:0.02;stroke-linecap:butt;stroke-linejoin:miter;stroke-opacity:1;stroke-dasharray:none"
       d="M 0,149.26347 V 0 h 570.6497"
       id="path2" />
  </g>
</svg>
