<?xml version="1.0" encoding="UTF-8" standalone="no"?>
<!-- Created with Inkscape (http://www.inkscape.org/) -->

<svg
   width="43.17049mm"
   height="43.17049mm"
   viewBox="0 0 43.17049 43.17049"
   version="1.1"
   id="svg1"
   inkscape:version="1.4.2 (f4327f4, 2025-05-13)"
   sodipodi:docname="Wheel.svg"
   xmlns:inkscape="http://www.inkscape.org/namespaces/inkscape"
   xmlns:sodipodi="http://sodipodi.sourceforge.net/DTD/sodipodi-0.dtd"
   xmlns="http://www.w3.org/2000/svg"
   xmlns:svg="http://www.w3.org/2000/svg">
  <sodipodi:namedview
     id="namedview1"
     pagecolor="#ffffff"
     bordercolor="#111111"
     borderopacity="1"
     inkscape:showpageshadow="0"
     inkscape:pageopacity="0"
     inkscape:pagecheckerboard="1"
     inkscape:deskcolor="#d1d1d1"
     inkscape:document-units="mm"
     inkscape:zoom="1.0467522"
     inkscape:cx="39.64644"
     inkscape:cy="475.27961"
     inkscape:window-width="3440"
     inkscape:window-height="1377"
     inkscape:window-x="-8"
     inkscape:window-y="472"
     inkscape:window-maximized="1"
     inkscape:current-layer="layer1" />
  <defs
     id="defs1" />
  <g
     inkscape:label="Layer 1"
     inkscape:groupmode="layer"
     id="layer1"
     transform="translate(-94.45625,-22.754166)">
    <path
       id="path15"
       style="opacity:0.5;fill:#ff0000;stroke:none;stroke-width:1.55785;stroke-dasharray:none"
       d="M 116.0415,22.754166 A 21.585226,21.585226 0 0 0 94.45625,44.339411 21.585226,21.585226 0 0 0 116.0415,65.924657 21.585226,21.585226 0 0 0 137.62674,44.339411 21.585226,21.585226 0 0 0 116.0415,22.754166 Z m 0.39894,3.567224 a 18.022503,18.022503 0 0 1 12.54135,5.474601 L 117.028,42.079084 Z m -2.13941,0.07958 a 18.022503,18.022503 0 0 1 5.2e-4,0 l 0.58704,15.757178 -12.68656,-9.363769 a 18.022503,18.022503 0 0 1 12.099,-6.393409 z m 16.07602,7.01611 a 18.022503,18.022503 0 0 1 3.6866,10.92233 18.022503,18.022503 0 0 1 -0.14676,2.296501 L 118.42326,43.70224 Z m -29.44471,1.09709 12.68605,9.365837 -15.23215,4.080888 a 18.022503,18.022503 0 0 1 -0.36742,-3.621485 18.022503,18.022503 0 0 1 2.91352,-9.82524 z m 17.09198,11.28975 15.49414,2.933672 a 18.022503,18.022503 0 0 1 -8.12766,11.009663 z m -3.85041,0.144178 -6.30866,14.452864 A 18.022503,18.022503 0 0 1 98.9397,50.027952 Z m 1.95957,0.854728 7.36699,13.943335 a 18.022503,18.022503 0 0 1 -7.45897,1.615922 18.022503,18.022503 0 0 1 -6.21616,-1.105876 z" />
  </g>
</svg>
